<svg width="257" height="257" viewBox="0 0 257 257" fill="none" xmlns="http://www.w3.org/2000/svg">
<path d="M121.002 27.3092C118.941 27.3131 116.881 27.3603 114.822 27.4507C110.398 28.2373 108.355 30.1743 107.245 32.3914C106.023 34.8359 106.071 38.1252 107.433 41.0501C108.797 43.9765 111.299 46.3688 114.791 47.2623C118.283 48.1558 123.091 47.694 129.41 43.6548L134.461 51.5605C126.521 56.6353 118.838 57.974 112.469 56.3441C106.1 54.7143 101.374 50.259 98.9324 45.0186C96.6315 40.0814 96.2088 34.2888 98.4154 29.1448C76.8731 32.6284 57.3672 40.8895 42.3844 52.5167C37.4602 57.8816 36.9783 64.1169 39.1367 68.3754C41.5612 73.1571 47.2734 76.6476 58.6979 73.0336L61.5369 81.9749C47.1911 86.5125 35.3666 81.6797 30.7772 72.626C29.6579 70.4189 28.9742 68.0301 28.7057 65.567C26.2893 68.4342 24.1078 71.4188 22.1803 74.5239L22.2435 74.554C17.9197 84.4003 17.8213 91.2203 19.545 95.6521C21.2697 100.084 24.8833 102.9 30.4474 104.452C41.5747 107.554 59.5933 103.811 72.2817 94.335C77.7128 90.2792 82.8614 80.4424 83.3096 72.8137C83.533 68.9989 82.7248 65.9852 81.1286 64.0607C79.5324 62.1362 76.9765 60.6961 71.6854 60.7508L71.5915 51.3713C78.8633 51.296 84.7678 53.7576 88.3442 58.0693C91.9201 62.3811 92.9923 67.9337 92.6736 73.3629C92.0361 84.2216 86.3515 95.5351 77.8971 101.849C62.9007 113.049 43.0936 117.713 27.9377 113.488C20.9163 111.53 14.7012 107.271 11.4987 100.673C6.70706 123.485 13.6686 144.674 26.9177 159.338C28.6494 161.256 30.4926 163.068 32.4241 164.749C31.0417 160.791 30.4083 156.668 30.5569 152.656C30.8229 145.465 33.6097 138.428 39.2005 133.567C43.7853 129.578 50.119 127.277 57.694 127.292C58.1989 127.292 58.7149 127.301 59.2309 127.322C60.4105 127.373 61.6217 127.475 62.855 127.637L61.6303 136.939C53.8058 135.911 48.7276 137.703 45.3489 140.641C41.9708 143.579 40.107 147.976 39.9213 153.001C39.5498 163.052 45.9799 174.789 59.8438 178.193L59.8278 178.288C73.4769 180.893 88.7081 178.474 104 169.142C104.009 169.136 104.021 169.133 104.031 169.127C107.213 166.893 108.927 164.706 109.772 162.821C110.768 160.596 110.747 158.659 110.038 156.578C108.621 152.416 103.543 148.139 98.8857 146.947C91.3554 145.019 86.5718 147.667 84.3291 150.822C82.0864 153.974 81.9498 157.071 85.4113 159.762L79.6539 167.165C72.5327 161.627 72.0784 151.862 76.6899 145.378C80.1493 140.515 86.2194 137.183 93.5374 136.97C93.8458 136.959 94.1544 136.954 94.463 136.955C96.6244 136.97 98.8752 137.268 101.208 137.864C108.991 139.857 116.186 145.532 118.917 153.55C119.645 155.699 119.965 157.966 119.858 160.233C128.246 155.947 137.091 152.141 146.101 149.283C161.238 142.366 167.801 130.24 167.545 120.029C167.286 109.743 160.926 101.086 146.274 99.6371L147.2 90.3038C165.604 92.1239 176.545 105.286 176.909 119.794C177.121 128.246 174.021 137.042 167.78 144.53C175.847 143.626 183.864 143.779 191.638 145.346C190.055 142.098 189.288 138.581 189.395 135.088C189.735 124.026 199.143 113.708 213.928 113.551C214.938 113.541 215.948 113.578 216.955 113.66L216.202 123.009C203.69 122.006 198.985 128.574 198.775 135.385C198.569 142.121 203.065 149.662 215.952 150.663C230.158 150.788 240.341 143.084 245.332 131.636C252.013 116.308 248.844 93.328 227.842 72.3108C227.444 71.9127 227.049 71.5112 226.649 71.1186C226.429 72.9905 225.949 74.8225 225.223 76.5618C221.584 85.2908 213.059 91.1827 204.204 92.8286C191.988 95.0984 181.972 90.1447 177.349 82.5857C172.726 75.0278 173.94 64.3397 182.258 58.7129L187.514 66.4931C183.04 69.5189 182.855 73.6158 185.349 77.6917C187.842 81.7686 193.465 85.2993 202.493 83.6218C208.168 82.5667 214.488 77.9346 216.563 72.9553C217.602 70.4656 217.803 68.005 216.768 65.1901C215.927 62.9037 214.164 60.289 210.885 57.5353L210.791 57.4575C197.08 47.1238 182.512 39.6918 167.749 34.7908C167.758 34.8068 167.771 34.8209 167.78 34.8375C171.135 40.9713 171.384 47.9294 169.318 54.0843C165.185 66.3947 152.216 76.094 136.173 75.5579C132.685 75.4425 129.366 77.124 126.542 80.4053C123.718 83.6865 121.656 88.4932 121.177 93.6132C120.221 103.853 124.652 115.14 141.93 120.719L139.041 129.644C118.419 122.986 110.515 106.782 111.825 92.7508C112.481 85.736 115.191 79.2171 119.433 74.289C123.676 69.3608 129.711 65.955 136.485 66.1794C148.551 66.582 157.729 59.1099 160.421 51.0892C161.767 47.0796 161.593 43.0896 159.543 39.341C157.551 35.7008 153.605 32.1013 146.539 29.4746C138.106 28.01 129.561 27.2854 121.002 27.3092V27.3092ZM171.808 153.77C150.769 155.482 127.955 165.516 108.924 177.142C80.8244 194.308 51.2544 190.561 30.2738 174.994C38.5279 204.531 67.7757 210.526 98.2884 203.055C101.342 201.909 104.342 199.774 106.9 197.017C110.443 193.199 113.009 188.248 113.817 184.154L123.025 185.974C121.798 192.19 118.468 198.355 113.786 203.402C109.294 208.243 103.441 212.111 96.6726 213.127C93.2764 220.691 90.4815 228.025 89.3471 233.158C87.5652 241.219 96.4779 244.314 100.468 236.184C110.017 216.737 123.493 199.426 140.326 184.5C153.409 175.89 164.624 165.273 171.809 153.77H171.808Z" fill="#DCDCDC"/>
</svg>
